<svg xmlns="http://www.w3.org/2000/svg" viewBox="0 0 15.13 17.93"><defs><style>.cls-1{fill:#231815;}</style></defs><g id="图层_2" data-name="图层 2"><g id="Layer_1" data-name="Layer 1"><path class="cls-1" d="M5.07.46h0a1.55,1.55,0,0,0,0,2.2l5.2,5.21a1.55,1.55,0,0,1,0,2.2l-5.2,5.21a1.55,1.55,0,0,0,0,2.2h0a1.55,1.55,0,0,0,2.2,0l7.41-7.41a1.55,1.55,0,0,0,0-2.2L7.27.46A1.55,1.55,0,0,0,5.07.46Z"/><rect class="cls-1" y="7.14" width="13.59" height="3.27" rx="1.64" transform="translate(13.59 17.56) rotate(180)"/></g></g></svg>